<?xml version="1.0" encoding="UTF-8"?>
<svg xmlns="http://www.w3.org/2000/svg" xmlns:xlink="http://www.w3.org/1999/xlink" width="50pt" height="50pt" viewBox="0 0 50 50" version="1.1">
<g id="surface1">
<path style=" stroke:none;fill-rule:nonzero;fill:rgb(84.313725%,9.803922%,12.54902%);fill-opacity:1;" d="M 23.207031 35.148438 C 22.324219 35.015625 21.777344 35.519531 21.695312 36.359375 C 21.140625 35.445312 20.628906 33.429688 20.878906 32.386719 C 21.316406 33.074219 23.097656 34.714844 25.148438 33.570312 C 25.5 33.378906 25.652344 32.925781 25.449219 32.570312 C 25.238281 32.210938 24.792969 31.933594 24.164062 31.816406 C 24.199219 30.546875 23.929688 29.597656 23.929688 29.597656 C 23.929688 29.597656 24.761719 29.328125 24.777344 30.167969 C 24.792969 31.007812 24.753906 31.1875 24.753906 31.1875 C 24.753906 31.1875 25.164062 31.1875 25.660156 31.253906 C 25.558594 30.523438 25.398438 29.925781 25.15625 29.582031 C 25.710938 29.035156 26.449219 28.421875 26.449219 28.421875 C 26.449219 28.421875 26.660156 29.363281 25.996094 29.566406 C 26.1875 29.925781 26.347656 30.839844 26.246094 31.371094 C 26.433594 31.421875 26.609375 31.480469 26.769531 31.5625 C 26.820312 31.253906 26.945312 30.269531 26.785156 29.683594 C 27.390625 28.960938 27.742188 28.546875 27.742188 28.546875 C 27.742188 28.546875 28.320312 29.328125 27.398438 29.976562 C 27.675781 30.800781 27.1875 31.859375 27.179688 31.875 C 27.195312 31.890625 27.203125 31.910156 27.222656 31.917969 C 27.28125 31.992188 27.324219 32.078125 27.347656 32.167969 C 27.347656 32.167969 27.347656 32.167969 27.347656 32.175781 C 27.421875 32.5625 27.164062 33.074219 26.640625 33.386719 C 26.433594 33.511719 26.246094 33.6875 26.113281 33.898438 C 25.582031 34.636719 24.011719 35.25 23.207031 35.148438 Z M 46.371094 24.996094 C 46.371094 30.707031 44.144531 36.066406 40.113281 40.105469 C 36.074219 44.144531 30.714844 46.363281 25.003906 46.363281 C 19.292969 46.363281 13.933594 44.136719 9.894531 40.105469 C 5.855469 36.066406 3.636719 30.707031 3.636719 24.996094 C 3.636719 19.285156 5.863281 13.925781 9.894531 9.886719 C 13.933594 5.847656 19.292969 3.628906 25.003906 3.628906 C 30.714844 3.628906 36.074219 5.855469 40.113281 9.886719 C 44.144531 13.925781 46.371094 19.292969 46.371094 24.996094 Z M 40.914062 13.398438 C 40.566406 14.394531 39.777344 15.226562 38.769531 15.597656 C 38.652344 15.640625 38.542969 15.671875 38.425781 15.707031 C 37.980469 16.765625 38.105469 17.964844 38.695312 18.921875 C 39.351562 19.039062 39.945312 19.386719 40.390625 19.890625 C 40.9375 18.746094 42.097656 17.972656 43.398438 17.949219 C 42.777344 16.335938 41.945312 14.808594 40.914062 13.398438 Z M 35.460938 8.308594 C 34.511719 8.289062 33.765625 8.945312 33.65625 9.851562 C 33.789062 9.835938 33.914062 9.820312 34.050781 9.820312 C 35.445312 9.792969 36.761719 10.84375 37.03125 12.210938 C 37.105469 12.605469 36.503906 12.773438 36.425781 12.378906 C 36.175781 11.070312 34.796875 10.171875 33.496094 10.53125 C 32.167969 10.894531 31.285156 12.3125 31.589844 13.65625 C 31.898438 15.035156 33.730469 15.992188 34.773438 14.714844 C 35.191406 14.203125 35.191406 13.398438 34.722656 12.910156 C 34.25 12.414062 33.445312 12.464844 33 12.960938 C 32.730469 13.261719 32.285156 12.816406 32.554688 12.515625 C 33.058594 11.960938 33.882812 11.785156 34.570312 12.0625 C 35.25 12.328125 35.664062 13.019531 35.703125 13.734375 C 35.722656 13.96875 35.6875 14.195312 35.628906 14.40625 C 36.425781 15.109375 37.585938 15.363281 38.601562 14.984375 C 39.566406 14.621094 40.230469 13.75 40.433594 12.757812 C 39.964844 12.171875 39.460938 11.609375 38.921875 11.070312 C 37.863281 10.011719 36.695312 9.085938 35.460938 8.308594 Z M 28.984375 6.527344 C 28.347656 7.492188 28.457031 8.835938 28.96875 9.828125 C 29.4375 10.734375 30.246094 11.371094 31.203125 11.683594 C 31.210938 11.683594 31.21875 11.683594 31.226562 11.683594 C 31.597656 10.945312 32.246094 10.347656 33 10.046875 C 33.015625 9.011719 33.679688 8.140625 34.605469 7.820312 C 33.90625 7.425781 33.183594 7.082031 32.445312 6.777344 C 32.460938 7.046875 32.414062 7.332031 32.285156 7.601562 C 31.859375 8.523438 30.613281 8.726562 29.882812 8.054688 C 29.582031 7.777344 30.035156 7.332031 30.328125 7.609375 C 30.714844 7.972656 31.378906 7.886719 31.664062 7.441406 C 31.839844 7.164062 31.867188 6.820312 31.765625 6.519531 C 31.085938 6.273438 30.394531 6.0625 29.691406 5.886719 C 29.414062 6.03125 29.160156 6.257812 28.984375 6.527344 Z M 19.5625 6.0625 C 20.394531 7.179688 21.132812 9.433594 20.308594 11.289062 C 20.957031 11.203125 21.183594 11.945312 21.03125 12.054688 C 22.828125 11.40625 25.296875 11.925781 26.769531 13.503906 C 27.699219 12.675781 28.835938 12.101562 30.042969 11.835938 C 29.253906 11.363281 28.625 10.648438 28.261719 9.785156 C 27.792969 8.660156 27.757812 7.25 28.4375 6.207031 C 28.566406 6.023438 28.707031 5.847656 28.875 5.695312 C 27.609375 5.441406 26.316406 5.316406 24.996094 5.316406 C 23.132812 5.308594 21.308594 5.570312 19.5625 6.0625 Z M 26.808594 17.972656 C 27.539062 17.78125 27.238281 16.636719 26.507812 16.832031 C 25.769531 17.035156 26.070312 18.175781 26.808594 17.972656 Z M 25.996094 18.898438 C 25.367188 19.066406 25.625 20.046875 26.253906 19.871094 C 26.886719 19.703125 26.625 18.730469 25.996094 18.898438 Z M 27.046875 15.261719 C 26.996094 15.09375 26.894531 14.941406 26.734375 14.859375 C 26.574219 14.773438 26.40625 14.75 26.230469 14.789062 C 26.0625 14.832031 25.910156 14.949219 25.828125 15.101562 C 25.777344 15.175781 25.75 15.261719 25.75 15.34375 C 25.734375 15.429688 25.734375 15.523438 25.761719 15.605469 C 25.808594 15.773438 25.910156 15.925781 26.070312 16.007812 C 26.230469 16.09375 26.398438 16.117188 26.574219 16.074219 C 26.742188 16.035156 26.894531 15.917969 26.976562 15.765625 C 27.027344 15.691406 27.054688 15.605469 27.054688 15.523438 C 27.078125 15.4375 27.078125 15.355469 27.046875 15.261719 Z M 25.550781 13.648438 C 25.507812 13.503906 25.425781 13.378906 25.289062 13.304688 C 25.15625 13.238281 25.011719 13.210938 24.863281 13.246094 L 24.835938 13.253906 C 24.695312 13.289062 24.566406 13.386719 24.492188 13.515625 C 24.425781 13.632812 24.390625 13.808594 24.433594 13.941406 C 24.476562 14.085938 24.558594 14.210938 24.695312 14.285156 C 24.828125 14.355469 24.96875 14.378906 25.121094 14.347656 L 25.148438 14.335938 C 25.289062 14.304688 25.414062 14.203125 25.492188 14.078125 C 25.566406 13.960938 25.59375 13.78125 25.550781 13.648438 Z M 23.132812 12.800781 C 22.628906 12.933594 22.835938 13.714844 23.339844 13.582031 C 23.84375 13.445312 23.636719 12.664062 23.132812 12.800781 Z M 7.390625 16.160156 C 7.792969 16.085938 8.214844 16.109375 8.617188 16.261719 C 9.683594 16.65625 10.390625 17.816406 10.222656 18.941406 C 10.179688 19.234375 10.0625 19.519531 9.902344 19.78125 C 10.785156 20.519531 11.144531 21.6875 10.757812 22.796875 C 11.355469 23.476562 11.523438 24.535156 11.171875 25.375 C 11.003906 25.769531 10.757812 26.113281 10.464844 26.390625 C 12.40625 26.078125 14.421875 26.40625 16.167969 27.332031 C 16.867188 26.734375 17.714844 26.246094 18.722656 25.84375 C 18.722656 25.84375 17.914062 25.9375 16.898438 25.574219 C 19.082031 25.464844 20.324219 24.660156 20.324219 24.660156 C 20.324219 24.660156 19.730469 24.675781 18.535156 24.398438 C 21.921875 23.914062 22.953125 22.082031 22.59375 20.738281 C 22.449219 20.308594 22.222656 19.980469 21.988281 19.8125 C 23.566406 17.863281 22.835938 17.261719 22.835938 17.261719 C 22.835938 17.261719 22.636719 17.796875 22.390625 18.300781 C 21.636719 19.839844 20.550781 20.074219 20.046875 20.015625 C 19.535156 19.957031 19.59375 20.234375 19.972656 20.460938 C 20.34375 20.6875 20.847656 20.484375 20.484375 20.71875 C 20.125 20.949219 19.199219 20.871094 18.679688 20.644531 C 18.160156 20.425781 18.03125 20.570312 18.226562 20.863281 C 18.417969 21.15625 19.140625 21.140625 18.90625 21.257812 C 18.351562 21.527344 17.738281 21.292969 17.378906 20.996094 C 17.015625 20.703125 16.480469 20.628906 16.460938 20.996094 C 16.410156 22.066406 18.394531 21.660156 19.21875 21.71875 C 20.039062 21.777344 20.746094 22.390625 20.527344 22.863281 C 20.308594 23.332031 18.949219 23.398438 18.714844 23.074219 C 18.476562 22.746094 18.824219 22.675781 19.015625 22.777344 C 19.207031 22.878906 19.59375 22.921875 19.710938 22.753906 C 19.832031 22.59375 19.78125 21.898438 18.125 22.15625 C 16.46875 22.417969 15.738281 21.988281 14.730469 20.949219 C 14.269531 21.660156 13.269531 21.621094 12.773438 21.292969 C 12.28125 20.964844 12.289062 20.519531 12.664062 20.878906 C 13.042969 21.242188 13.96875 21.15625 14.203125 20.671875 C 13.167969 19.863281 12.269531 18.402344 12.765625 17.648438 C 13.269531 16.890625 14.539062 18.320312 16.242188 16.613281 C 15.75 16.125 15.949219 15.53125 16.714844 15.078125 C 17.445312 14.640625 18.183594 13.851562 18.714844 12.816406 C 18.664062 12.101562 18.125 11.449219 17.292969 11.40625 C 17.015625 11.390625 16.699219 11.464844 16.429688 11.617188 C 16.4375 11.625 16.445312 11.625 16.460938 11.632812 C 16.890625 11.859375 17.175781 12.355469 17.042969 12.84375 C 16.90625 13.328125 16.378906 13.503906 15.941406 13.277344 C 15.445312 13.019531 15.328125 12.414062 15.5625 11.933594 C 15.5625 11.933594 15.5625 11.925781 15.570312 11.925781 C 14.40625 12.078125 13.773438 13.671875 12.785156 14.203125 C 11.882812 14.683594 10.757812 14.453125 10.085938 13.699219 C 9.902344 13.488281 10.203125 13.167969 10.398438 13.386719 C 11.070312 14.136719 12.136719 14.210938 12.917969 13.582031 C 13.605469 13.027344 14.035156 12.1875 14.816406 11.742188 C 15.136719 11.558594 15.523438 11.457031 15.890625 11.480469 C 16.554688 10.835938 17.738281 10.808594 18.46875 11.390625 C 18.714844 11.582031 18.882812 11.816406 19 12.078125 C 19.199219 11.238281 19.109375 10.105469 18.191406 9.179688 C 17.023438 8.003906 18.066406 7.113281 19.394531 9.222656 C 19.695312 8.054688 19.082031 7.164062 18.613281 6.398438 C 15.816406 7.359375 13.246094 8.953125 11.085938 11.105469 C 9.566406 12.589844 8.324219 14.304688 7.390625 16.160156 Z M 18.015625 17.109375 C 18 17.117188 17.972656 17.117188 17.957031 17.117188 C 18.117188 17.160156 18.285156 17.160156 18.453125 17.109375 C 18.980469 16.964844 19.300781 16.421875 19.160156 15.882812 C 19.015625 15.355469 18.46875 15.035156 17.933594 15.175781 C 17.402344 15.320312 17.09375 15.859375 17.21875 16.386719 C 17.261719 16.152344 17.429688 15.949219 17.679688 15.882812 C 18.015625 15.789062 18.359375 15.992188 18.453125 16.328125 C 18.554688 16.671875 18.351562 17.015625 18.015625 17.109375 Z M 17.796875 16.554688 C 17.773438 16.453125 17.664062 16.394531 17.5625 16.421875 C 17.460938 16.445312 17.402344 16.554688 17.429688 16.65625 C 17.453125 16.757812 17.5625 16.816406 17.664062 16.789062 C 17.773438 16.757812 17.832031 16.65625 17.796875 16.554688 Z M 15.875 12.363281 C 15.824219 12.992188 16.765625 13.070312 16.605469 12.414062 C 16.539062 12.144531 16.292969 11.976562 16.042969 11.917969 C 15.949219 12.042969 15.890625 12.1875 15.875 12.363281 Z M 5.316406 24.71875 C 5.703125 25.742188 6.59375 26.507812 7.726562 26.652344 C 8.960938 26.800781 10.414062 26.121094 10.699219 24.820312 C 10.945312 23.726562 10.078125 22.460938 8.878906 22.804688 C 8.339844 22.953125 7.863281 23.457031 7.988281 24.054688 C 8.054688 24.375 8.324219 24.675781 8.675781 24.644531 C 9.003906 24.617188 9.214844 24.273438 9.054688 23.980469 C 8.859375 23.625 9.40625 23.308594 9.601562 23.660156 C 9.945312 24.289062 9.59375 25.097656 8.878906 25.246094 C 8.128906 25.398438 7.46875 24.8125 7.367188 24.089844 C 7.171875 22.753906 8.609375 21.847656 9.808594 22.171875 C 9.960938 22.214844 10.113281 22.273438 10.238281 22.351562 C 10.40625 21.5625 10.15625 20.761719 9.507812 20.242188 C 9.003906 20.679688 8.316406 20.855469 7.652344 20.492188 C 6.59375 19.914062 6.636719 18.269531 7.886719 17.957031 C 8.28125 17.863281 8.449219 18.46875 8.054688 18.5625 C 7.609375 18.671875 7.367188 19.148438 7.585938 19.570312 C 7.785156 19.957031 8.230469 20.109375 8.632812 20.015625 C 9.464844 19.820312 9.785156 18.847656 9.566406 18.101562 C 9.230469 16.941406 7.996094 16.503906 7.039062 16.933594 C 5.9375 19.359375 5.351562 21.996094 5.316406 24.71875 Z M 6.929688 32.847656 C 7.609375 32.824219 8.179688 32.253906 8.199219 31.511719 C 7.742188 31.296875 7.390625 30.890625 7.265625 30.347656 C 7.039062 29.328125 7.871094 28.339844 8.917969 28.4375 C 9.324219 28.472656 9.324219 29.101562 8.917969 29.070312 C 8.097656 28.992188 7.59375 29.84375 8.019531 30.539062 C 8.441406 31.238281 9.414062 31.21875 9.96875 30.699219 C 10.550781 30.152344 10.589844 29.261719 10.238281 28.582031 C 9.878906 27.875 9.207031 27.449219 8.441406 27.3125 C 8.40625 27.304688 8.382812 27.296875 8.355469 27.289062 C 8.089844 27.304688 7.8125 27.296875 7.542969 27.261719 C 6.660156 27.128906 5.878906 26.667969 5.332031 26.003906 C 5.449219 28.390625 5.996094 30.699219 6.929688 32.847656 Z M 7.199219 33.4375 C 7.910156 34.941406 8.820312 36.359375 9.910156 37.652344 C 10.355469 37.066406 10.996094 36.628906 11.714844 36.445312 C 11.699219 36.375 11.691406 36.300781 11.699219 36.226562 C 11.699219 36.207031 11.707031 36.183594 11.707031 36.167969 C 11.691406 36.160156 10.707031 35.535156 10.5 34.695312 C 9.375 34.65625 9.441406 33.6875 9.441406 33.6875 C 9.441406 33.6875 9.953125 33.839844 10.859375 34.117188 C 11.042969 34.695312 11.691406 35.453125 11.894531 35.6875 C 11.984375 35.535156 12.09375 35.386719 12.222656 35.242188 C 11.851562 34.855469 11.480469 34 11.457031 33.589844 C 10.792969 33.773438 10.457031 32.875 10.457031 32.875 C 10.457031 32.875 11.414062 32.992188 12.171875 33.144531 C 12.152344 33.570312 12.339844 34.152344 12.65625 34.824219 C 13.035156 34.496094 13.378906 34.277344 13.378906 34.277344 C 13.378906 34.277344 13.253906 34.152344 12.808594 33.4375 C 12.363281 32.722656 13.210938 32.496094 13.210938 32.496094 C 13.210938 32.496094 13.496094 33.4375 14.210938 34.488281 C 13.742188 34.933594 12.253906 37.207031 14.078125 39.082031 C 14.136719 38.308594 14.882812 36.957031 15.640625 36.285156 C 15.722656 36.90625 16.042969 38.03125 16.824219 39.015625 C 16.429688 38.878906 15.789062 39.097656 15.253906 39.484375 C 16.351562 40.222656 16.847656 41.535156 16.589844 42.800781 C 17.277344 43.128906 17.984375 43.414062 18.703125 43.648438 C 19.226562 42.667969 20.046875 41.894531 21.039062 41.433594 C 18.929688 40.886719 17.082031 39.5 16.269531 36.929688 C 14.503906 31.386719 20.082031 27.222656 23.441406 25.0625 C 24.851562 24.023438 25.601562 23.347656 26.121094 22.785156 C 26.253906 22.644531 26.464844 22.628906 26.617188 22.746094 C 27.179688 23.164062 27.902344 23.585938 28.765625 23.417969 C 29.160156 23.339844 29.4375 22.945312 29.355469 22.550781 C 29.261719 22.148438 28.933594 21.753906 28.378906 21.441406 C 28.808594 20.25 28.851562 19.257812 28.851562 19.257812 C 28.851562 19.257812 29.722656 19.269531 29.480469 20.074219 C 29.238281 20.878906 29.136719 21.03125 29.136719 21.03125 C 29.136719 21.03125 29.523438 21.15625 29.976562 21.375 C 30.109375 20.644531 30.144531 20.03125 30.027344 19.628906 C 30.722656 19.285156 31.613281 18.941406 31.613281 18.941406 C 31.613281 18.941406 31.511719 19.898438 30.824219 19.878906 C 30.898438 20.285156 30.757812 21.207031 30.496094 21.667969 C 30.65625 21.769531 30.800781 21.886719 30.925781 22.015625 C 31.070312 21.738281 31.496094 20.839844 31.53125 20.234375 C 32.335938 19.738281 32.789062 19.460938 32.789062 19.460938 C 32.789062 19.460938 33.09375 20.382812 32.015625 20.703125 C 32.027344 21.570312 31.226562 22.425781 31.210938 22.433594 C 31.21875 22.449219 31.226562 22.46875 31.238281 22.492188 C 31.269531 22.585938 31.285156 22.675781 31.277344 22.769531 C 31.277344 22.769531 31.277344 22.769531 31.277344 22.777344 C 31.261719 22.9375 31.175781 23.105469 31.042969 23.25 C 32.503906 24.296875 34.503906 24.296875 35.964844 23.164062 C 35.484375 22.609375 35.300781 21.820312 35.46875 21.054688 C 35.714844 19.929688 36.722656 19.058594 37.847656 18.90625 C 37.878906 18.898438 37.914062 18.898438 37.945312 18.898438 C 37.46875 17.933594 37.394531 16.824219 37.71875 15.796875 C 36.863281 15.824219 36.007812 15.53125 35.335938 14.992188 C 34.796875 15.738281 33.765625 16.125 32.832031 15.847656 C 31.34375 15.421875 30.632812 13.800781 30.976562 12.363281 C 29.566406 12.496094 28.238281 13.085938 27.1875 14.035156 C 27.472656 14.453125 27.699219 14.925781 27.84375 15.453125 C 28.65625 18.496094 27.1875 22.140625 22.585938 25.046875 C 18.527344 27.609375 16.613281 30.363281 15.773438 32.757812 C 15.714844 32.925781 15.472656 32.875 15.480469 32.699219 C 15.53125 31.984375 15.691406 31.210938 15.984375 30.613281 C 15.714844 30.773438 15.285156 31.09375 14.757812 31.757812 C 15.007812 29.605469 16.167969 28.640625 16.167969 28.640625 C 16.167969 28.640625 15.058594 29.238281 14.347656 29.832031 C 14.65625 29.070312 15.09375 28.40625 15.640625 27.828125 C 13.832031 26.9375 11.765625 26.726562 9.820312 27.214844 C 10.40625 27.617188 10.851562 28.210938 11.019531 28.925781 C 11.261719 29.984375 10.785156 31.167969 9.734375 31.582031 C 9.433594 31.699219 9.121094 31.730469 8.8125 31.699219 C 8.742188 32.621094 8.039062 33.292969 7.199219 33.4375 Z M 19.453125 35.402344 C 20.167969 35.210938 19.871094 34.109375 19.160156 34.300781 C 18.453125 34.496094 18.746094 35.59375 19.453125 35.402344 Z M 18.855469 33.21875 C 18.957031 33.269531 19.066406 33.292969 19.183594 33.261719 C 19.292969 33.234375 19.386719 33.160156 19.445312 33.058594 C 19.476562 32.992188 19.503906 32.925781 19.503906 32.847656 C 19.503906 32.773438 19.484375 32.699219 19.445312 32.628906 C 19.4375 32.621094 19.4375 32.605469 19.425781 32.597656 C 19.402344 32.570312 19.386719 32.539062 19.359375 32.511719 C 19.316406 32.472656 19.277344 32.445312 19.226562 32.429688 C 19.140625 32.394531 19.039062 32.378906 18.957031 32.402344 C 18.890625 32.429688 18.824219 32.460938 18.761719 32.511719 C 18.695312 32.570312 18.628906 32.714844 18.644531 32.808594 C 18.644531 32.824219 18.644531 32.832031 18.65625 32.847656 C 18.65625 32.925781 18.671875 33 18.714844 33.066406 C 18.738281 33.125 18.796875 33.175781 18.855469 33.21875 Z M 20.234375 37.679688 C 21.097656 37.441406 20.738281 36.097656 19.871094 36.335938 C 19.007812 36.5625 19.367188 37.914062 20.234375 37.679688 Z M 22.25 27.003906 C 22.273438 26.96875 22.308594 26.9375 22.332031 26.902344 C 22.339844 26.894531 22.339844 26.886719 22.351562 26.878906 C 22.519531 26.667969 22.257812 26.390625 22.039062 26.550781 C 20.769531 27.472656 19.367188 28.632812 18.277344 30.011719 C 16.496094 32.246094 15.964844 34.539062 16.6875 36.804688 C 17.3125 38.753906 18.628906 40.140625 20.492188 40.820312 C 20.90625 40.972656 21.351562 41.082031 21.8125 41.15625 C 21.8125 41.15625 21.8125 41.15625 21.820312 41.15625 C 21.585938 41.097656 21.359375 41.03125 21.132812 40.945312 C 19.257812 40.273438 17.941406 38.878906 17.328125 36.929688 C 16.605469 34.65625 17.144531 32.371094 18.914062 30.136719 C 19.890625 28.925781 21.097656 27.867188 22.25 27.003906 Z M 23.171875 39.484375 C 23.171875 39.410156 23.15625 39.332031 23.113281 39.265625 C 23.105469 39.257812 23.105469 39.242188 23.097656 39.230469 C 23.074219 39.207031 23.054688 39.171875 23.03125 39.148438 C 22.988281 39.105469 22.945312 39.082031 22.894531 39.0625 C 22.8125 39.03125 22.710938 39.015625 22.628906 39.039062 C 22.558594 39.0625 22.492188 39.097656 22.433594 39.148438 C 22.367188 39.207031 22.300781 39.351562 22.316406 39.441406 C 22.316406 39.460938 22.316406 39.46875 22.324219 39.484375 C 22.324219 39.558594 22.339844 39.636719 22.382812 39.703125 C 22.425781 39.769531 22.476562 39.820312 22.535156 39.855469 C 22.636719 39.902344 22.746094 39.929688 22.863281 39.894531 C 22.972656 39.871094 23.0625 39.796875 23.121094 39.695312 C 23.15625 39.628906 23.171875 39.558594 23.171875 39.484375 Z M 21.527344 38.945312 C 22.074219 38.804688 21.847656 37.945312 21.300781 38.097656 C 20.753906 38.242188 20.980469 39.089844 21.527344 38.945312 Z M 11.078125 38.921875 C 12.515625 40.359375 14.144531 41.550781 15.898438 42.464844 C 16.027344 41.5 15.554688 40.550781 14.691406 40.039062 C 14.429688 40.359375 13.933594 40.375 13.640625 40.070312 C 12.675781 39.097656 12.347656 37.914062 12.230469 37.117188 C 11.488281 37.199219 10.828125 37.621094 10.433594 38.234375 C 10.632812 38.46875 10.851562 38.695312 11.078125 38.921875 Z M 24.996094 44.691406 C 25.433594 44.691406 25.859375 44.675781 26.289062 44.648438 C 25.332031 43.917969 24.609375 42.878906 24.28125 41.683594 C 23.835938 41.726562 23.382812 41.742188 22.9375 41.726562 C 22.914062 41.734375 22.878906 41.742188 22.855469 41.742188 C 21.402344 41.851562 20.140625 42.683594 19.445312 43.902344 C 21.222656 44.414062 23.089844 44.691406 24.996094 44.691406 Z M 32.117188 43.363281 C 32.058594 43.054688 31.949219 42.710938 31.808594 42.339844 C 31.40625 42.640625 31.042969 42.835938 31.042969 42.835938 C 31.042969 42.835938 31.152344 42.953125 31.488281 43.601562 C 31.707031 43.523438 31.917969 43.449219 32.117188 43.363281 Z M 33.421875 42.808594 C 33.191406 42.289062 32.78125 41.734375 32.628906 41.535156 C 32.53125 41.675781 32.402344 41.820312 32.269531 41.953125 C 32.488281 42.222656 32.6875 42.683594 32.808594 43.085938 C 33.015625 42.996094 33.21875 42.902344 33.421875 42.808594 Z M 41.542969 35.6875 C 40.921875 35.460938 40.207031 35.496094 39.59375 35.773438 C 39.0625 37.046875 37.105469 38.433594 35.679688 38.550781 C 35.679688 38.550781 36.023438 38.308594 36.542969 37.820312 C 36.007812 38.023438 34.25 38.433594 32.875 37.652344 C 34.117188 37.878906 34.992188 37.089844 34.992188 37.089844 C 34.992188 37.089844 34.371094 37.199219 33.53125 37.039062 C 34 37.082031 34.832031 36.644531 35.367188 35.855469 C 34.496094 35.78125 33.648438 35.386719 33.152344 34.730469 C 32.503906 35.746094 31.597656 36.8125 30.238281 37.71875 C 27.523438 39.535156 25.128906 38.878906 23.734375 38.15625 C 23.5 38.03125 23.558594 37.6875 23.828125 37.652344 C 25.761719 37.402344 26.996094 36.292969 28.539062 34.621094 C 30.742188 32.246094 31.839844 28.320312 35.59375 27.3125 C 37.570312 26.785156 40.011719 27.699219 40.585938 29.816406 C 40.601562 29.867188 40.609375 29.917969 40.617188 29.96875 C 41.683594 29.414062 42.976562 29.488281 43.996094 30.167969 C 44.230469 29.289062 44.40625 28.390625 44.523438 27.480469 C 43.523438 27.523438 42.617188 26.988281 42.164062 26.070312 C 42.15625 26.078125 42.136719 26.078125 42.128906 26.085938 C 41.257812 26.515625 40.191406 26.472656 39.375 25.929688 C 38.621094 25.425781 38.15625 24.644531 37.964844 23.777344 C 37.621094 23.886719 37.242188 23.894531 36.890625 23.777344 C 36.746094 23.726562 36.613281 23.667969 36.484375 23.601562 C 34.722656 25.054688 32.175781 25.0625 30.429688 23.644531 C 30.378906 23.660156 30.320312 23.675781 30.261719 23.695312 C 30.011719 23.761719 29.757812 23.855469 29.546875 24.023438 C 28.824219 24.574219 27.136719 24.660156 26.40625 24.316406 C 25.710938 23.953125 25.332031 24.238281 24.8125 24.761719 C 22.777344 27.070312 19.308594 29.992188 20.644531 34.957031 C 21.667969 38.769531 25.769531 40.0625 29.480469 38.90625 C 29.773438 38.8125 29.992188 39.171875 29.773438 39.390625 C 28.699219 40.457031 26.945312 41.265625 25.03125 41.574219 C 25.425781 42.886719 26.332031 43.925781 27.515625 44.515625 C 28.640625 44.371094 29.742188 44.128906 30.808594 43.800781 C 30.671875 43.449219 30.480469 43.011719 30.210938 42.542969 C 30.707031 42.136719 30.96875 41.675781 30.976562 41.257812 C 30.984375 40.851562 30.640625 40.527344 30.238281 40.527344 C 29.699219 40.527344 28.960938 40.492188 28.53125 40.625 C 29.179688 40.339844 29.648438 39.972656 30.085938 39.585938 C 30.394531 39.609375 30.691406 39.675781 30.910156 39.785156 C 31.128906 39.894531 31.371094 39.972656 31.621094 39.980469 C 32.234375 40.003906 32.707031 40.332031 32.824219 40.703125 C 32.824219 40.703125 32.824219 40.703125 32.824219 40.710938 C 32.847656 40.804688 32.855469 40.894531 32.832031 40.988281 C 32.832031 41.003906 32.824219 41.03125 32.824219 41.046875 C 32.832031 41.054688 33.722656 41.710938 33.90625 42.53125 C 35.730469 41.601562 37.410156 40.382812 38.894531 38.894531 C 39.921875 37.921875 40.792969 36.839844 41.542969 35.6875 Z M 43.777344 30.933594 C 42.886719 30.195312 41.652344 30.152344 40.71875 30.773438 C 40.726562 31.664062 40.398438 32.421875 39.964844 33.007812 C 39.753906 33.300781 39.292969 33.09375 39.367188 32.738281 C 39.492188 32.195312 39.5 31.632812 39.375 31.136719 C 39.082031 30.042969 38.191406 29.261719 36.878906 29.53125 C 35.628906 29.792969 35.21875 30.671875 34.863281 31.253906 C 34.539062 31.800781 34.210938 32.816406 33.589844 33.964844 C 33.824219 34.445312 34.335938 34.789062 34.824219 34.972656 C 35.109375 35.082031 35.417969 35.140625 35.714844 35.140625 C 35.761719 34.992188 35.804688 34.839844 35.832031 34.679688 C 35.980469 33.730469 36.722656 33.117188 37.519531 32.964844 C 37.285156 32.363281 36.621094 32.042969 36 32.253906 C 35.535156 32.402344 35.335938 31.671875 35.796875 31.523438 C 36.722656 31.210938 37.769531 31.679688 38.175781 32.5625 C 38.234375 32.699219 38.273438 32.832031 38.308594 32.964844 C 38.519531 33.007812 38.726562 33.085938 38.914062 33.203125 C 39.332031 33.460938 39.8125 34.058594 39.777344 34.898438 C 39.785156 34.898438 39.796875 34.890625 39.804688 34.890625 C 40.542969 34.664062 41.273438 34.730469 41.929688 35.023438 C 42.71875 33.738281 43.332031 32.371094 43.777344 30.933594 Z M 32.183594 31.65625 C 32.269531 31.53125 32.351562 31.414062 32.445312 31.296875 C 32.496094 31.226562 32.589844 31.210938 32.664062 31.253906 C 32.773438 31.320312 32.898438 31.335938 33.058594 31.304688 C 33.496094 31.1875 33.519531 30.699219 33.300781 30.4375 C 33.253906 30.371094 33.242188 30.289062 33.300781 30.21875 C 33.421875 30.085938 33.546875 29.960938 33.679688 29.832031 C 33.738281 29.773438 33.839844 29.765625 33.898438 29.824219 C 34.007812 29.925781 34.160156 29.976562 34.335938 29.925781 C 34.6875 29.832031 34.753906 29.472656 34.621094 29.21875 C 34.585938 29.144531 34.605469 29.0625 34.671875 29.011719 C 34.804688 28.917969 34.941406 28.84375 35.082031 28.757812 C 35.160156 28.714844 35.257812 28.742188 35.300781 28.816406 C 35.386719 28.960938 35.554688 29.0625 35.761719 29.003906 C 36.023438 28.933594 36.109375 28.699219 36.058594 28.488281 C 36.039062 28.40625 36.089844 28.320312 36.175781 28.296875 C 36.234375 28.28125 36.300781 28.261719 36.359375 28.246094 C 36.511719 28.203125 36.671875 28.171875 36.832031 28.152344 C 36.832031 28.1875 36.832031 28.230469 36.847656 28.261719 C 36.914062 28.523438 37.242188 28.675781 37.484375 28.523438 C 37.484375 28.523438 37.492188 28.515625 37.492188 28.515625 C 37.570312 28.464844 37.628906 28.398438 37.671875 28.3125 C 37.679688 28.296875 37.679688 28.28125 37.6875 28.261719 C 37.710938 28.1875 37.777344 28.128906 37.863281 28.136719 C 38.285156 28.1875 38.703125 28.296875 39.089844 28.472656 C 39.214844 28.53125 39.339844 28.597656 39.460938 28.675781 C 39.183594 28.390625 38.835938 28.144531 38.441406 27.960938 C 37.601562 27.574219 36.613281 27.492188 35.722656 27.726562 C 33.320312 28.371094 32.035156 30.355469 30.800781 32.269531 C 30.210938 33.183594 29.597656 34.125 28.875 34.90625 C 27.597656 36.285156 26.40625 37.460938 24.683594 37.921875 C 24.601562 37.945312 24.515625 37.964844 24.425781 37.980469 C 24.425781 37.980469 24.433594 37.980469 24.433594 37.988281 C 25.199219 38.308594 26.070312 38.242188 26.785156 37.820312 C 26.859375 37.777344 26.945312 37.796875 26.996094 37.863281 C 27.121094 38.03125 27.339844 38.132812 27.597656 38.054688 C 28.054688 37.929688 28.121094 37.460938 27.945312 37.140625 C 27.902344 37.074219 27.925781 36.988281 27.976562 36.9375 C 28.070312 36.863281 28.152344 36.78125 28.238281 36.703125 C 28.296875 36.644531 28.398438 36.644531 28.457031 36.703125 C 28.488281 36.738281 28.523438 36.761719 28.566406 36.78125 C 28.714844 36.855469 28.875 36.890625 29.042969 36.839844 C 29.203125 36.796875 29.347656 36.6875 29.421875 36.542969 C 29.464844 36.476562 29.488281 36.394531 29.496094 36.316406 C 29.515625 36.234375 29.515625 36.148438 29.488281 36.074219 C 29.457031 35.980469 29.414062 35.890625 29.347656 35.8125 C 29.289062 35.746094 29.289062 35.652344 29.347656 35.59375 C 29.398438 35.535156 29.457031 35.476562 29.507812 35.417969 C 29.539062 35.386719 29.574219 35.34375 29.605469 35.308594 C 29.65625 35.25 29.75 35.242188 29.816406 35.285156 C 29.917969 35.34375 30.042969 35.367188 30.195312 35.335938 C 30.613281 35.226562 30.640625 34.746094 30.421875 34.496094 C 30.371094 34.4375 30.371094 34.359375 30.414062 34.300781 C 30.515625 34.167969 30.605469 34.023438 30.707031 33.890625 C 30.75 33.824219 30.832031 33.796875 30.898438 33.832031 C 30.96875 33.867188 31.050781 33.875 31.144531 33.847656 C 31.464844 33.765625 31.472656 33.402344 31.304688 33.21875 C 31.253906 33.160156 31.246094 33.074219 31.277344 33.015625 C 31.3125 32.964844 31.34375 32.90625 31.378906 32.855469 C 31.503906 32.796875 31.640625 32.730469 31.765625 32.671875 C 31.816406 32.671875 31.867188 32.671875 31.925781 32.65625 C 32.328125 32.546875 32.363281 32.109375 32.167969 31.859375 C 32.144531 31.78125 32.152344 31.707031 32.183594 31.65625 Z M 44.597656 26.84375 C 44.65625 26.230469 44.683594 25.617188 44.683594 25.003906 C 44.683594 22.785156 44.3125 20.628906 43.617188 18.585938 C 42.046875 18.496094 40.675781 19.746094 40.683594 21.390625 C 40.683594 21.796875 40.054688 21.796875 40.054688 21.390625 C 40.054688 21.125 40.082031 20.863281 40.140625 20.621094 C 39.636719 19.804688 38.644531 19.34375 37.695312 19.585938 C 36.746094 19.839844 35.992188 20.730469 36.03125 21.730469 C 36.050781 22.171875 36.285156 22.617188 36.628906 22.921875 C 36.664062 22.9375 36.6875 22.964844 36.710938 22.988281 C 37.117188 23.289062 37.636719 23.390625 38.125 23.039062 C 38.527344 22.753906 38.738281 22.214844 38.492188 21.761719 C 38.242188 21.265625 37.621094 21.164062 37.234375 21.5625 C 36.949219 21.855469 36.503906 21.410156 36.789062 21.117188 C 37.730469 20.148438 39.308594 20.972656 39.222656 22.273438 C 39.191406 22.785156 38.929688 23.207031 38.550781 23.492188 C 38.804688 25.089844 40.527344 26.441406 42.0625 25.40625 C 42.808594 24.902344 43.15625 23.617188 42.257812 23.074219 C 41.878906 22.84375 41.355469 22.894531 41.089844 23.265625 C 40.828125 23.617188 40.972656 24.097656 41.347656 24.289062 C 41.710938 24.476562 41.390625 25.019531 41.03125 24.835938 C 40.011719 24.308594 40.164062 22.871094 41.164062 22.433594 C 42.097656 22.03125 43.121094 22.667969 43.355469 23.609375 C 43.558594 24.390625 43.246094 25.1875 42.675781 25.71875 C 43.027344 26.472656 43.785156 26.917969 44.597656 26.84375 Z M 44.597656 26.84375 "/>
</g>
</svg>
